# xmcd CD database file
# Generated: Thu May 3 10:54:06 2001 by KSCD
# 
# Track frame offsets:
#       150
#       15505
#       41877
#       59557
#       80680
#       92935
#       113112
#       128952
#       148127
#       165342
#       181977
#
# Disc length: 2545 seconds
#
# Revision: 2
# Processed by: cddbd v1.4b41PL1 Copyright (c) Steve Scherf et al.
# Submitted via: Kscd 1.2.7
#
DISCID=9809ef0b
DTITLE=Barry Ward - My Blood Is In This Land
DYEAR=1900
DGENRE=
TTITLE0=One More Ride
TTITLE1=Saddle Up
TTITLE2=My Blood Is In This Land
TTITLE3=Anna Leigh
TTITLE4=Faces In The Sky
TTITLE5=Sierra Autumn
TTITLE6=Dust In The Wind
TTITLE7=Grandpa's Song
TTITLE8=Wheatfields
TTITLE9=Missing You Tonight
TTITLE10=The Trail You Ride
EXTD=All Songs written by Barry Ward. All Rights Reserved.\nBW012K\n\nThe P
EXTD=layers:\nBarry Ward, Bill Van Wyhe, Marco Alvarez, Robbin Koonce\n\nTh
EXTD=e Singers:\nBarry Ward, Lorinda Alexander, Charlie Thompson, Arden Ton
EXTD=ne, Don Eves\n\nRecorded at Sounds Suite Studio, Liberal, KS\nEngineer
EXTD=ed and mixed by Bill Van Wyhe at Sounds Suite Studio\n\nCopyright 2000
EXTD=, Flying W Records\nBarry Ward\nbward@ucom.net\nwww.barrybearward.com
EXTT0=
EXTT1=
EXTT2=
EXTT3=
EXTT4=
EXTT5=
EXTT6=
EXTT7=
EXTT8=
EXTT9=
EXTT10=
PLAYORDER=
